<?xml version="1.0" encoding="UTF-8" standalone="no"?>
<!DOCTYPE svg PUBLIC "-//W3C//DTD SVG 1.1//EN"
 "http://www.w3.org/Graphics/SVG/1.1/DTD/svg11.dtd">
<!-- Generated by graphviz version 9.0.0 (20230911.1827)
 -->
<!-- Pages: 1 -->
<svg width="2020pt" height="1196pt"
 viewBox="0.00 0.00 2020.47 1196.00" xmlns="http://www.w3.org/2000/svg" xmlns:xlink="http://www.w3.org/1999/xlink">
<g id="graph0" class="graph" transform="scale(1 1) rotate(0) translate(4 1192)">
<polygon fill="white" stroke="none" points="-4,4 -4,-1192 2016.47,-1192 2016.47,4 -4,4"/>
<!-- broadcaster -->
<g id="node1" class="node">
<title>broadcaster</title>
<polygon fill="none" stroke="black" points="1194.37,-1152 1282.57,-1152 1313.99,-1188 1162.95,-1188 1194.37,-1152"/>
<text text-anchor="middle" x="1238.47" y="-1164.95" font-family="Times,serif" font-size="14.00">broadcaster</text>
</g>
<!-- km -->
<g id="node17" class="node">
<title>km</title>
<polygon fill="none" stroke="black" points="473.47,-1116 440.66,-1098 473.47,-1080 506.28,-1098 473.47,-1116"/>
<text text-anchor="middle" x="473.47" y="-1092.95" font-family="Times,serif" font-size="14.00">km</text>
</g>
<!-- broadcaster&#45;&gt;km -->
<g id="edge57" class="edge">
<title>broadcaster&#45;&gt;km</title>
<path fill="none" stroke="black" d="M1183.45,-1163.97C1036.59,-1150.53 637.96,-1114.05 512.1,-1102.53"/>
<polygon fill="black" stroke="black" points="512.57,-1099.06 502.29,-1101.64 511.93,-1106.03 512.57,-1099.06"/>
</g>
<!-- xt -->
<g id="node21" class="node">
<title>xt</title>
<polygon fill="none" stroke="black" points="983.47,-1116 956.47,-1098 983.47,-1080 1010.47,-1098 983.47,-1116"/>
<text text-anchor="middle" x="983.47" y="-1092.95" font-family="Times,serif" font-size="14.00">xt</text>
</g>
<!-- broadcaster&#45;&gt;xt -->
<g id="edge58" class="edge">
<title>broadcaster&#45;&gt;xt</title>
<path fill="none" stroke="black" d="M1190.51,-1155.83C1138.3,-1141.5 1056.49,-1119.04 1012.98,-1107.1"/>
<polygon fill="black" stroke="black" points="1014.06,-1103.77 1003.49,-1104.5 1012.21,-1110.52 1014.06,-1103.77"/>
</g>
<!-- vk -->
<g id="node29" class="node">
<title>vk</title>
<polygon fill="none" stroke="black" points="1461.47,-1116 1433,-1098 1461.47,-1080 1489.94,-1098 1461.47,-1116"/>
<text text-anchor="middle" x="1461.47" y="-1092.95" font-family="Times,serif" font-size="14.00">vk</text>
</g>
<!-- broadcaster&#45;&gt;vk -->
<g id="edge60" class="edge">
<title>broadcaster&#45;&gt;vk</title>
<path fill="none" stroke="black" d="M1285.22,-1154.33C1329.66,-1140.37 1395.11,-1119.83 1432.48,-1108.1"/>
<polygon fill="black" stroke="black" points="1433.19,-1111.55 1441.68,-1105.21 1431.09,-1104.87 1433.19,-1111.55"/>
</g>
<!-- pk -->
<g id="node31" class="node">
<title>pk</title>
<polygon fill="none" stroke="black" points="1970.47,-1116 1942,-1098 1970.47,-1080 1998.94,-1098 1970.47,-1116"/>
<text text-anchor="middle" x="1970.47" y="-1092.95" font-family="Times,serif" font-size="14.00">pk</text>
</g>
<!-- broadcaster&#45;&gt;pk -->
<g id="edge59" class="edge">
<title>broadcaster&#45;&gt;pk</title>
<path fill="none" stroke="black" d="M1293.19,-1163.77C1436.15,-1150.1 1817.87,-1113.59 1935.48,-1102.35"/>
<polygon fill="black" stroke="black" points="1935.52,-1105.86 1945.14,-1101.42 1934.85,-1098.89 1935.52,-1105.86"/>
</g>
<!-- jv -->
<g id="node2" class="node">
<title>jv</title>
<polygon fill="none" stroke="black" points="653.47,-540 626.47,-522 653.47,-504 680.47,-522 653.47,-540"/>
<text text-anchor="middle" x="653.47" y="-516.95" font-family="Times,serif" font-size="14.00">jv</text>
</g>
<!-- rn -->
<g id="node12" class="node">
<title>rn</title>
<polygon fill="none" stroke="black" points="615.47,-468 588.47,-450 615.47,-432 642.47,-450 615.47,-468"/>
<text text-anchor="middle" x="615.47" y="-444.95" font-family="Times,serif" font-size="14.00">rn</text>
</g>
<!-- jv&#45;&gt;rn -->
<g id="edge1" class="edge">
<title>jv&#45;&gt;rn</title>
<path fill="none" stroke="black" d="M646.5,-508.16C641.25,-498.49 633.92,-484.99 627.7,-473.53"/>
<polygon fill="black" stroke="black" points="630.96,-472.21 623.12,-465.09 624.81,-475.55 630.96,-472.21"/>
</g>
<!-- jn -->
<g id="node55" class="node">
<title>jn</title>
<polygon fill="none" stroke="black" points="776.47,-228.44 803.47,-216 830.47,-228.44 830.44,-248.56 776.49,-248.56 776.47,-228.44"/>
<text text-anchor="middle" x="803.47" y="-228.95" font-family="Times,serif" font-size="14.00">jn</text>
</g>
<!-- jv&#45;&gt;jn -->
<g id="edge2" class="edge">
<title>jv&#45;&gt;jn</title>
<path fill="none" stroke="black" d="M654.47,-504.13C657.6,-456.52 668.56,-322.35 694.47,-288 711.64,-265.23 741.18,-251.72 765.18,-244.04"/>
<polygon fill="black" stroke="black" points="766.05,-247.43 774.65,-241.24 764.07,-240.72 766.05,-247.43"/>
</g>
<!-- rr -->
<g id="node3" class="node">
<title>rr</title>
<polygon fill="none" stroke="black" points="1711.47,-612 1684.47,-594 1711.47,-576 1738.47,-594 1711.47,-612"/>
<text text-anchor="middle" x="1711.47" y="-588.95" font-family="Times,serif" font-size="14.00">rr</text>
</g>
<!-- vm -->
<g id="node26" class="node">
<title>vm</title>
<polygon fill="none" stroke="black" points="1667.47,-540 1634.66,-522 1667.47,-504 1700.28,-522 1667.47,-540"/>
<text text-anchor="middle" x="1667.47" y="-516.95" font-family="Times,serif" font-size="14.00">vm</text>
</g>
<!-- rr&#45;&gt;vm -->
<g id="edge8" class="edge">
<title>rr&#45;&gt;vm</title>
<path fill="none" stroke="black" d="M1703.81,-580.81C1697.71,-571.11 1689.02,-557.28 1681.66,-545.58"/>
<polygon fill="black" stroke="black" points="1684.73,-543.89 1676.45,-537.28 1678.81,-547.61 1684.73,-543.89"/>
</g>
<!-- gp -->
<g id="node51" class="node">
<title>gp</title>
<polygon fill="none" stroke="black" points="1758.47,-228.44 1785.47,-216 1812.47,-228.44 1812.44,-248.56 1758.49,-248.56 1758.47,-228.44"/>
<text text-anchor="middle" x="1785.47" y="-228.95" font-family="Times,serif" font-size="14.00">gp</text>
</g>
<!-- rr&#45;&gt;gp -->
<g id="edge9" class="edge">
<title>rr&#45;&gt;gp</title>
<path fill="none" stroke="black" d="M1714.51,-577.73C1719.4,-551.8 1728.47,-497.43 1728.47,-451 1728.47,-451 1728.47,-451 1728.47,-377 1728.47,-336.03 1736.13,-325.57 1752.47,-288 1756.93,-277.74 1763.15,-267.15 1769,-258.15"/>
<polygon fill="black" stroke="black" points="1771.78,-260.28 1774.47,-250.03 1765.98,-256.36 1771.78,-260.28"/>
</g>
<!-- hm -->
<g id="node4" class="node">
<title>hm</title>
<polygon fill="none" stroke="black" points="761.47,-756 728.66,-738 761.47,-720 794.28,-738 761.47,-756"/>
<text text-anchor="middle" x="761.47" y="-732.95" font-family="Times,serif" font-size="14.00">hm</text>
</g>
<!-- ql -->
<g id="node42" class="node">
<title>ql</title>
<polygon fill="none" stroke="black" points="729.47,-684 702.47,-666 729.47,-648 756.47,-666 729.47,-684"/>
<text text-anchor="middle" x="729.47" y="-660.95" font-family="Times,serif" font-size="14.00">ql</text>
</g>
<!-- hm&#45;&gt;ql -->
<g id="edge16" class="edge">
<title>hm&#45;&gt;ql</title>
<path fill="none" stroke="black" d="M755.15,-723.17C750.93,-713.94 745.27,-701.57 740.35,-690.79"/>
<polygon fill="black" stroke="black" points="743.53,-689.34 736.19,-681.7 737.17,-692.25 743.53,-689.34"/>
</g>
<!-- cf -->
<g id="node5" class="node">
<title>cf</title>
<polygon fill="none" stroke="black" points="1201.47,-612 1174.47,-594 1201.47,-576 1228.47,-594 1201.47,-612"/>
<text text-anchor="middle" x="1201.47" y="-588.95" font-family="Times,serif" font-size="14.00">cf</text>
</g>
<!-- dx -->
<g id="node14" class="node">
<title>dx</title>
<polygon fill="none" stroke="black" points="1162.47,-540 1134,-522 1162.47,-504 1190.94,-522 1162.47,-540"/>
<text text-anchor="middle" x="1162.47" y="-516.95" font-family="Times,serif" font-size="14.00">dx</text>
</g>
<!-- cf&#45;&gt;dx -->
<g id="edge17" class="edge">
<title>cf&#45;&gt;dx</title>
<path fill="none" stroke="black" d="M1194.5,-580.49C1189.13,-570.85 1181.57,-557.27 1175.14,-545.73"/>
<polygon fill="black" stroke="black" points="1178.31,-544.23 1170.38,-537.2 1172.19,-547.64 1178.31,-544.23"/>
</g>
<!-- fb -->
<g id="node50" class="node">
<title>fb</title>
<polygon fill="none" stroke="black" points="1248.47,-228.44 1275.47,-216 1302.47,-228.44 1302.44,-248.56 1248.49,-248.56 1248.47,-228.44"/>
<text text-anchor="middle" x="1275.47" y="-228.95" font-family="Times,serif" font-size="14.00">fb</text>
</g>
<!-- cf&#45;&gt;fb -->
<g id="edge18" class="edge">
<title>cf&#45;&gt;fb</title>
<path fill="none" stroke="black" d="M1204.51,-577.73C1209.4,-551.8 1218.47,-497.43 1218.47,-451 1218.47,-451 1218.47,-451 1218.47,-377 1218.47,-336.03 1226.13,-325.57 1242.47,-288 1246.93,-277.74 1253.15,-267.15 1259,-258.15"/>
<polygon fill="black" stroke="black" points="1261.78,-260.28 1264.47,-250.03 1255.98,-256.36 1261.78,-260.28"/>
</g>
<!-- cg -->
<g id="node6" class="node">
<title>cg</title>
<polygon fill="none" stroke="black" points="1428.47,-1044 1400.72,-1026 1428.47,-1008 1456.22,-1026 1428.47,-1044"/>
<text text-anchor="middle" x="1428.47" y="-1020.95" font-family="Times,serif" font-size="14.00">cg</text>
</g>
<!-- kl -->
<g id="node30" class="node">
<title>kl</title>
<polygon fill="none" stroke="black" points="1391.47,-972 1364.47,-954 1391.47,-936 1418.47,-954 1391.47,-972"/>
<text text-anchor="middle" x="1391.47" y="-948.95" font-family="Times,serif" font-size="14.00">kl</text>
</g>
<!-- cg&#45;&gt;kl -->
<g id="edge19" class="edge">
<title>cg&#45;&gt;kl</title>
<path fill="none" stroke="black" d="M1421.68,-1012.16C1416.62,-1002.59 1409.58,-989.26 1403.57,-977.88"/>
<polygon fill="black" stroke="black" points="1406.69,-976.3 1398.92,-969.1 1400.5,-979.57 1406.69,-976.3"/>
</g>
<!-- hv -->
<g id="node7" class="node">
<title>hv</title>
<polygon fill="none" stroke="black" points="1086.47,-396 1058,-378 1086.47,-360 1114.94,-378 1086.47,-396"/>
<text text-anchor="middle" x="1086.47" y="-372.95" font-family="Times,serif" font-size="14.00">hv</text>
</g>
<!-- kg -->
<g id="node22" class="node">
<title>kg</title>
<polygon fill="none" stroke="black" points="1048.47,-324 1020,-306 1048.47,-288 1076.94,-306 1048.47,-324"/>
<text text-anchor="middle" x="1048.47" y="-300.95" font-family="Times,serif" font-size="14.00">kg</text>
</g>
<!-- hv&#45;&gt;kg -->
<g id="edge20" class="edge">
<title>hv&#45;&gt;kg</title>
<path fill="none" stroke="black" d="M1079.5,-364.16C1074.25,-354.49 1066.92,-340.99 1060.7,-329.53"/>
<polygon fill="black" stroke="black" points="1063.96,-328.21 1056.12,-321.09 1057.81,-331.55 1063.96,-328.21"/>
</g>
<!-- hv&#45;&gt;fb -->
<g id="edge21" class="edge">
<title>hv&#45;&gt;fb</title>
<path fill="none" stroke="black" d="M1089.87,-361.61C1094.98,-341.93 1106.48,-308 1128.47,-288 1158.77,-260.45 1204.45,-246.96 1236.84,-240.53"/>
<polygon fill="black" stroke="black" points="1237.42,-243.98 1246.63,-238.74 1236.16,-237.1 1237.42,-243.98"/>
</g>
<!-- hs -->
<g id="node8" class="node">
<title>hs</title>
<polygon fill="none" stroke="black" points="691.47,-612 664.45,-594 691.47,-576 718.49,-594 691.47,-612"/>
<text text-anchor="middle" x="691.47" y="-588.95" font-family="Times,serif" font-size="14.00">hs</text>
</g>
<!-- hs&#45;&gt;jv -->
<g id="edge22" class="edge">
<title>hs&#45;&gt;jv</title>
<path fill="none" stroke="black" d="M684.5,-580.16C679.25,-570.49 671.92,-556.99 665.7,-545.53"/>
<polygon fill="black" stroke="black" points="668.96,-544.21 661.12,-537.09 662.81,-547.55 668.96,-544.21"/>
</g>
<!-- bd -->
<g id="node9" class="node">
<title>bd</title>
<polygon fill="none" stroke="black" points="1900.47,-972 1872,-954 1900.47,-936 1928.94,-954 1900.47,-972"/>
<text text-anchor="middle" x="1900.47" y="-948.95" font-family="Times,serif" font-size="14.00">bd</text>
</g>
<!-- dt -->
<g id="node46" class="node">
<title>dt</title>
<polygon fill="none" stroke="black" points="1863.47,-900 1836.47,-882 1863.47,-864 1890.47,-882 1863.47,-900"/>
<text text-anchor="middle" x="1863.47" y="-876.95" font-family="Times,serif" font-size="14.00">dt</text>
</g>
<!-- bd&#45;&gt;dt -->
<g id="edge23" class="edge">
<title>bd&#45;&gt;dt</title>
<path fill="none" stroke="black" d="M1893.51,-939.83C1888.43,-930.23 1881.43,-916.97 1875.46,-905.68"/>
<polygon fill="black" stroke="black" points="1878.62,-904.18 1870.86,-896.97 1872.43,-907.45 1878.62,-904.18"/>
</g>
<!-- xv -->
<g id="node10" class="node">
<title>xv</title>
<polygon fill="none" stroke="black" points="1824.47,-828 1796,-810 1824.47,-792 1852.94,-810 1824.47,-828"/>
<text text-anchor="middle" x="1824.47" y="-804.95" font-family="Times,serif" font-size="14.00">xv</text>
</g>
<!-- mv -->
<g id="node18" class="node">
<title>mv</title>
<polygon fill="none" stroke="black" points="1781.47,-756 1748.66,-738 1781.47,-720 1814.28,-738 1781.47,-756"/>
<text text-anchor="middle" x="1781.47" y="-732.95" font-family="Times,serif" font-size="14.00">mv</text>
</g>
<!-- xv&#45;&gt;mv -->
<g id="edge24" class="edge">
<title>xv&#45;&gt;mv</title>
<path fill="none" stroke="black" d="M1816.78,-796.49C1810.8,-786.75 1802.35,-773 1795.22,-761.38"/>
<polygon fill="black" stroke="black" points="1798.39,-759.86 1790.17,-753.17 1792.43,-763.52 1798.39,-759.86"/>
</g>
<!-- xv&#45;&gt;gp -->
<g id="edge25" class="edge">
<title>xv&#45;&gt;gp</title>
<path fill="none" stroke="black" d="M1827.69,-793.74C1832.87,-767.82 1842.47,-713.47 1842.47,-667 1842.47,-667 1842.47,-667 1842.47,-377 1842.47,-332.48 1818.04,-285.39 1801.17,-258.18"/>
<polygon fill="black" stroke="black" points="1804.3,-256.58 1795.96,-250.05 1798.4,-260.35 1804.3,-256.58"/>
</g>
<!-- js -->
<g id="node11" class="node">
<title>js</title>
<polygon fill="none" stroke="black" points="257.47,-756 230.47,-738 257.47,-720 284.47,-738 257.47,-756"/>
<text text-anchor="middle" x="257.47" y="-732.95" font-family="Times,serif" font-size="14.00">js</text>
</g>
<!-- zb -->
<g id="node44" class="node">
<title>zb</title>
<polygon fill="none" stroke="black" points="218.47,-684 190.72,-666 218.47,-648 246.22,-666 218.47,-684"/>
<text text-anchor="middle" x="218.47" y="-660.95" font-family="Times,serif" font-size="14.00">zb</text>
</g>
<!-- js&#45;&gt;zb -->
<g id="edge26" class="edge">
<title>js&#45;&gt;zb</title>
<path fill="none" stroke="black" d="M250.5,-724.49C245.13,-714.85 237.57,-701.27 231.14,-689.73"/>
<polygon fill="black" stroke="black" points="234.31,-688.23 226.38,-681.2 228.19,-691.64 234.31,-688.23"/>
</g>
<!-- jl -->
<g id="node53" class="node">
<title>jl</title>
<polygon fill="none" stroke="black" points="266.47,-228.44 293.47,-216 320.47,-228.44 320.44,-248.56 266.49,-248.56 266.47,-228.44"/>
<text text-anchor="middle" x="293.47" y="-228.95" font-family="Times,serif" font-size="14.00">jl</text>
</g>
<!-- js&#45;&gt;jl -->
<g id="edge27" class="edge">
<title>js&#45;&gt;jl</title>
<path fill="none" stroke="black" d="M260.51,-721.73C265.4,-695.8 274.47,-641.43 274.47,-595 274.47,-595 274.47,-595 274.47,-377 274.47,-335.83 282.41,-288.54 288.03,-260.25"/>
<polygon fill="black" stroke="black" points="291.44,-261.01 290.03,-250.51 284.59,-259.6 291.44,-261.01"/>
</g>
<!-- bk -->
<g id="node36" class="node">
<title>bk</title>
<polygon fill="none" stroke="black" points="576.47,-396 548,-378 576.47,-360 604.94,-378 576.47,-396"/>
<text text-anchor="middle" x="576.47" y="-372.95" font-family="Times,serif" font-size="14.00">bk</text>
</g>
<!-- rn&#45;&gt;bk -->
<g id="edge28" class="edge">
<title>rn&#45;&gt;bk</title>
<path fill="none" stroke="black" d="M608.5,-436.49C603.13,-426.85 595.57,-413.27 589.14,-401.73"/>
<polygon fill="black" stroke="black" points="592.31,-400.23 584.38,-393.2 586.19,-403.64 592.31,-400.23"/>
</g>
<!-- rn&#45;&gt;jn -->
<g id="edge29" class="edge">
<title>rn&#45;&gt;jn</title>
<path fill="none" stroke="black" d="M614.9,-432.04C614.75,-399.8 619.05,-329.22 656.47,-288 684.44,-257.18 731.68,-244.27 765.05,-238.87"/>
<polygon fill="black" stroke="black" points="765.32,-242.36 774.72,-237.47 764.32,-235.43 765.32,-242.36"/>
</g>
<!-- lp -->
<g id="node13" class="node">
<title>lp</title>
<polygon fill="none" stroke="black" points="805.47,-828 778.47,-810 805.47,-792 832.47,-810 805.47,-828"/>
<text text-anchor="middle" x="805.47" y="-804.95" font-family="Times,serif" font-size="14.00">lp</text>
</g>
<!-- lp&#45;&gt;hm -->
<g id="edge30" class="edge">
<title>lp&#45;&gt;hm</title>
<path fill="none" stroke="black" d="M797.81,-796.81C791.71,-787.11 783.02,-773.28 775.66,-761.58"/>
<polygon fill="black" stroke="black" points="778.73,-759.89 770.45,-753.28 772.81,-763.61 778.73,-759.89"/>
</g>
<!-- jm -->
<g id="node41" class="node">
<title>jm</title>
<polygon fill="none" stroke="black" points="1122.47,-468 1092.55,-450 1122.47,-432 1152.39,-450 1122.47,-468"/>
<text text-anchor="middle" x="1122.47" y="-444.95" font-family="Times,serif" font-size="14.00">jm</text>
</g>
<!-- dx&#45;&gt;jm -->
<g id="edge32" class="edge">
<title>dx&#45;&gt;jm</title>
<path fill="none" stroke="black" d="M1155.13,-508.16C1149.61,-498.49 1141.89,-484.99 1135.35,-473.53"/>
<polygon fill="black" stroke="black" points="1138.51,-472.02 1130.51,-465.07 1132.43,-475.49 1138.51,-472.02"/>
</g>
<!-- dx&#45;&gt;fb -->
<g id="edge31" class="edge">
<title>dx&#45;&gt;fb</title>
<path fill="none" stroke="black" d="M1163.88,-504.35C1168.11,-457.35 1181.82,-324.62 1204.47,-288 1212.79,-274.55 1225.87,-263.36 1238.56,-254.78"/>
<polygon fill="black" stroke="black" points="1240.24,-257.85 1246.81,-249.54 1236.49,-251.94 1240.24,-257.85"/>
</g>
<!-- ss -->
<g id="node15" class="node">
<title>ss</title>
<polygon fill="none" stroke="black" points="843.47,-900 816.47,-882 843.47,-864 870.47,-882 843.47,-900"/>
<text text-anchor="middle" x="843.47" y="-876.95" font-family="Times,serif" font-size="14.00">ss</text>
</g>
<!-- ss&#45;&gt;lp -->
<g id="edge33" class="edge">
<title>ss&#45;&gt;lp</title>
<path fill="none" stroke="black" d="M836.5,-868.16C831.25,-858.49 823.92,-844.99 817.7,-833.53"/>
<polygon fill="black" stroke="black" points="820.96,-832.21 813.12,-825.09 814.81,-835.55 820.96,-832.21"/>
</g>
<!-- bh -->
<g id="node16" class="node">
<title>bh</title>
<polygon fill="none" stroke="black" points="370.47,-972 342,-954 370.47,-936 398.94,-954 370.47,-972"/>
<text text-anchor="middle" x="370.47" y="-948.95" font-family="Times,serif" font-size="14.00">bh</text>
</g>
<!-- ms -->
<g id="node43" class="node">
<title>ms</title>
<polygon fill="none" stroke="black" points="329.47,-900 298.1,-882 329.47,-864 360.83,-882 329.47,-900"/>
<text text-anchor="middle" x="329.47" y="-876.95" font-family="Times,serif" font-size="14.00">ms</text>
</g>
<!-- bh&#45;&gt;ms -->
<g id="edge36" class="edge">
<title>bh&#45;&gt;ms</title>
<path fill="none" stroke="black" d="M363.14,-940.49C357.5,-930.85 349.54,-917.27 342.79,-905.73"/>
<polygon fill="black" stroke="black" points="345.85,-904.05 337.78,-897.19 339.81,-907.58 345.85,-904.05"/>
</g>
<!-- bh&#45;&gt;jl -->
<g id="edge35" class="edge">
<title>bh&#45;&gt;jl</title>
<path fill="none" stroke="black" d="M373.69,-937.74C378.87,-911.82 388.47,-857.47 388.47,-811 388.47,-811 388.47,-811 388.47,-377 388.47,-327.49 348.07,-282.17 319.97,-256.62"/>
<polygon fill="black" stroke="black" points="322.3,-254.02 312.48,-250.05 317.68,-259.27 322.3,-254.02"/>
</g>
<!-- lm -->
<g id="node47" class="node">
<title>lm</title>
<polygon fill="none" stroke="black" points="406.47,-1044 376.55,-1026 406.47,-1008 436.39,-1026 406.47,-1044"/>
<text text-anchor="middle" x="406.47" y="-1020.95" font-family="Times,serif" font-size="14.00">lm</text>
</g>
<!-- km&#45;&gt;lm -->
<g id="edge38" class="edge">
<title>km&#45;&gt;lm</title>
<path fill="none" stroke="black" d="M462.7,-1085.75C452.49,-1075.08 436.92,-1058.82 424.76,-1046.11"/>
<polygon fill="black" stroke="black" points="427.48,-1043.89 418.03,-1039.08 422.42,-1048.73 427.48,-1043.89"/>
</g>
<!-- km&#45;&gt;jl -->
<g id="edge37" class="edge">
<title>km&#45;&gt;jl</title>
<path fill="none" stroke="black" d="M468.09,-1082.49C464.47,-1056.79 464.47,-1001.59 464.47,-955 464.47,-955 464.47,-955 464.47,-377 464.47,-308.03 382,-267.37 331.49,-248.29"/>
<polygon fill="black" stroke="black" points="332.95,-245.1 322.36,-244.96 330.55,-251.67 332.95,-245.1"/>
</g>
<!-- qm -->
<g id="node37" class="node">
<title>qm</title>
<polygon fill="none" stroke="black" points="1743.47,-684 1710.66,-666 1743.47,-648 1776.28,-666 1743.47,-684"/>
<text text-anchor="middle" x="1743.47" y="-660.95" font-family="Times,serif" font-size="14.00">qm</text>
</g>
<!-- mv&#45;&gt;qm -->
<g id="edge40" class="edge">
<title>mv&#45;&gt;qm</title>
<path fill="none" stroke="black" d="M1774.14,-723.5C1769.04,-714.11 1762.11,-701.34 1756.13,-690.32"/>
<polygon fill="black" stroke="black" points="1759.34,-688.9 1751.5,-681.79 1753.19,-692.24 1759.34,-688.9"/>
</g>
<!-- mv&#45;&gt;gp -->
<g id="edge39" class="edge">
<title>mv&#45;&gt;gp</title>
<path fill="none" stroke="black" d="M1785.58,-721.79C1792.2,-695.94 1804.47,-641.7 1804.47,-595 1804.47,-595 1804.47,-595 1804.47,-377 1804.47,-335.83 1796.53,-288.54 1790.91,-260.25"/>
<polygon fill="black" stroke="black" points="1794.35,-259.6 1788.91,-250.51 1787.5,-261.01 1794.35,-259.6"/>
</g>
<!-- pt -->
<g id="node19" class="node">
<title>pt</title>
<polygon fill="none" stroke="black" points="143.47,-540 116.47,-522 143.47,-504 170.47,-522 143.47,-540"/>
<text text-anchor="middle" x="143.47" y="-516.95" font-family="Times,serif" font-size="14.00">pt</text>
</g>
<!-- jt -->
<g id="node32" class="node">
<title>jt</title>
<polygon fill="none" stroke="black" points="105.47,-468 78.47,-450 105.47,-432 132.47,-450 105.47,-468"/>
<text text-anchor="middle" x="105.47" y="-444.95" font-family="Times,serif" font-size="14.00">jt</text>
</g>
<!-- pt&#45;&gt;jt -->
<g id="edge48" class="edge">
<title>pt&#45;&gt;jt</title>
<path fill="none" stroke="black" d="M136.5,-508.16C131.25,-498.49 123.92,-484.99 117.7,-473.53"/>
<polygon fill="black" stroke="black" points="120.96,-472.21 113.12,-465.09 114.81,-475.55 120.96,-472.21"/>
</g>
<!-- pt&#45;&gt;jl -->
<g id="edge49" class="edge">
<title>pt&#45;&gt;jl</title>
<path fill="none" stroke="black" d="M144.47,-504.13C147.6,-456.52 158.56,-322.35 184.47,-288 201.64,-265.23 231.18,-251.72 255.18,-244.04"/>
<polygon fill="black" stroke="black" points="256.05,-247.43 264.65,-241.24 254.07,-240.72 256.05,-247.43"/>
</g>
<!-- cb -->
<g id="node20" class="node">
<title>cb</title>
<polygon fill="none" stroke="black" points="1938.47,-1044 1910.72,-1026 1938.47,-1008 1966.22,-1026 1938.47,-1044"/>
<text text-anchor="middle" x="1938.47" y="-1020.95" font-family="Times,serif" font-size="14.00">cb</text>
</g>
<!-- cb&#45;&gt;bd -->
<g id="edge50" class="edge">
<title>cb&#45;&gt;bd</title>
<path fill="none" stroke="black" d="M1931.5,-1012.16C1926.25,-1002.49 1918.92,-988.99 1912.7,-977.53"/>
<polygon fill="black" stroke="black" points="1915.96,-976.21 1908.12,-969.09 1909.81,-979.55 1915.96,-976.21"/>
</g>
<!-- jf -->
<g id="node40" class="node">
<title>jf</title>
<polygon fill="none" stroke="black" points="919.47,-1044 892.47,-1026 919.47,-1008 946.47,-1026 919.47,-1044"/>
<text text-anchor="middle" x="919.47" y="-1020.95" font-family="Times,serif" font-size="14.00">jf</text>
</g>
<!-- xt&#45;&gt;jf -->
<g id="edge52" class="edge">
<title>xt&#45;&gt;jf</title>
<path fill="none" stroke="black" d="M973.75,-1086.37C963.98,-1075.68 948.7,-1058.97 936.84,-1046"/>
<polygon fill="black" stroke="black" points="939.63,-1043.87 930.3,-1038.85 934.47,-1048.59 939.63,-1043.87"/>
</g>
<!-- xt&#45;&gt;jn -->
<g id="edge51" class="edge">
<title>xt&#45;&gt;jn</title>
<path fill="none" stroke="black" d="M978.21,-1083.29C974.47,-1057.96 974.47,-1002.09 974.47,-955 974.47,-955 974.47,-955 974.47,-377 974.47,-308.03 892,-267.37 841.49,-248.29"/>
<polygon fill="black" stroke="black" points="842.95,-245.1 832.36,-244.96 840.55,-251.67 842.95,-245.1"/>
</g>
<!-- kg&#45;&gt;fb -->
<g id="edge53" class="edge">
<title>kg&#45;&gt;fb</title>
<path fill="none" stroke="black" d="M1064.67,-297.98C1072.41,-294.74 1081.84,-290.97 1090.47,-288 1140.57,-270.74 1199.59,-254.52 1237.26,-244.68"/>
<polygon fill="black" stroke="black" points="1237.96,-248.12 1246.76,-242.22 1236.21,-241.34 1237.96,-248.12"/>
</g>
<!-- dg -->
<g id="node23" class="node">
<title>dg</title>
<polygon fill="none" stroke="black" points="538.47,-324 510,-306 538.47,-288 566.94,-306 538.47,-324"/>
<text text-anchor="middle" x="538.47" y="-300.95" font-family="Times,serif" font-size="14.00">dg</text>
</g>
<!-- dg&#45;&gt;jn -->
<g id="edge54" class="edge">
<title>dg&#45;&gt;jn</title>
<path fill="none" stroke="black" d="M554.61,-297.8C562.34,-294.53 571.78,-290.77 580.47,-288 643.98,-267.73 719.87,-251.29 764.73,-242.35"/>
<polygon fill="black" stroke="black" points="765.37,-245.79 774.5,-240.43 764.01,-238.93 765.37,-245.79"/>
</g>
<!-- rt -->
<g id="node24" class="node">
<title>rt</title>
<polygon fill="none" stroke="black" points="1315.47,-828 1288.47,-810 1315.47,-792 1342.47,-810 1315.47,-828"/>
<text text-anchor="middle" x="1315.47" y="-804.95" font-family="Times,serif" font-size="14.00">rt</text>
</g>
<!-- hb -->
<g id="node28" class="node">
<title>hb</title>
<polygon fill="none" stroke="black" points="1276.47,-756 1248,-738 1276.47,-720 1304.94,-738 1276.47,-756"/>
<text text-anchor="middle" x="1276.47" y="-732.95" font-family="Times,serif" font-size="14.00">hb</text>
</g>
<!-- rt&#45;&gt;hb -->
<g id="edge56" class="edge">
<title>rt&#45;&gt;hb</title>
<path fill="none" stroke="black" d="M1308.5,-796.49C1303.13,-786.85 1295.57,-773.27 1289.14,-761.73"/>
<polygon fill="black" stroke="black" points="1292.31,-760.23 1284.38,-753.2 1286.19,-763.64 1292.31,-760.23"/>
</g>
<!-- rt&#45;&gt;fb -->
<g id="edge55" class="edge">
<title>rt&#45;&gt;fb</title>
<path fill="none" stroke="black" d="M1318.51,-793.73C1323.4,-767.8 1332.47,-713.43 1332.47,-667 1332.47,-667 1332.47,-667 1332.47,-377 1332.47,-332.48 1308.04,-285.39 1291.17,-258.18"/>
<polygon fill="black" stroke="black" points="1294.3,-256.58 1285.96,-250.05 1288.4,-260.35 1294.3,-256.58"/>
</g>
<!-- lr -->
<g id="node25" class="node">
<title>lr</title>
<polygon fill="none" stroke="black" points="181.47,-612 154.47,-594 181.47,-576 208.47,-594 181.47,-612"/>
<text text-anchor="middle" x="181.47" y="-588.95" font-family="Times,serif" font-size="14.00">lr</text>
</g>
<!-- lr&#45;&gt;pt -->
<g id="edge61" class="edge">
<title>lr&#45;&gt;pt</title>
<path fill="none" stroke="black" d="M174.5,-580.16C169.25,-570.49 161.92,-556.99 155.7,-545.53"/>
<polygon fill="black" stroke="black" points="158.96,-544.21 151.12,-537.09 152.81,-547.55 158.96,-544.21"/>
</g>
<!-- bf -->
<g id="node35" class="node">
<title>bf</title>
<polygon fill="none" stroke="black" points="1635.47,-468 1608.47,-450 1635.47,-432 1662.47,-450 1635.47,-468"/>
<text text-anchor="middle" x="1635.47" y="-444.95" font-family="Times,serif" font-size="14.00">bf</text>
</g>
<!-- vm&#45;&gt;bf -->
<g id="edge62" class="edge">
<title>vm&#45;&gt;bf</title>
<path fill="none" stroke="black" d="M1661.15,-507.17C1656.93,-497.94 1651.27,-485.57 1646.35,-474.79"/>
<polygon fill="black" stroke="black" points="1649.53,-473.34 1642.19,-465.7 1643.17,-476.25 1649.53,-473.34"/>
</g>
<!-- hx -->
<g id="node27" class="node">
<title>hx</title>
<polygon fill="none" stroke="black" points="66.47,-396 38,-378 66.47,-360 94.94,-378 66.47,-396"/>
<text text-anchor="middle" x="66.47" y="-372.95" font-family="Times,serif" font-size="14.00">hx</text>
</g>
<!-- qd -->
<g id="node49" class="node">
<title>qd</title>
<polygon fill="none" stroke="black" points="28.47,-324 0,-306 28.47,-288 56.94,-306 28.47,-324"/>
<text text-anchor="middle" x="28.47" y="-300.95" font-family="Times,serif" font-size="14.00">qd</text>
</g>
<!-- hx&#45;&gt;qd -->
<g id="edge63" class="edge">
<title>hx&#45;&gt;qd</title>
<path fill="none" stroke="black" d="M59.5,-364.16C54.25,-354.49 46.92,-340.99 40.7,-329.53"/>
<polygon fill="black" stroke="black" points="43.96,-328.21 36.12,-321.09 37.81,-331.55 43.96,-328.21"/>
</g>
<!-- hx&#45;&gt;jl -->
<g id="edge64" class="edge">
<title>hx&#45;&gt;jl</title>
<path fill="none" stroke="black" d="M69.58,-361.72C74.43,-341.84 85.69,-307.36 108.47,-288 150.06,-252.65 213.91,-240.83 254.67,-236.91"/>
<polygon fill="black" stroke="black" points="254.84,-240.41 264.52,-236.09 254.26,-233.43 254.84,-240.41"/>
</g>
<!-- pd -->
<g id="node48" class="node">
<title>pd</title>
<polygon fill="none" stroke="black" points="1238.47,-684 1210,-666 1238.47,-648 1266.94,-666 1238.47,-684"/>
<text text-anchor="middle" x="1238.47" y="-660.95" font-family="Times,serif" font-size="14.00">pd</text>
</g>
<!-- hb&#45;&gt;pd -->
<g id="edge66" class="edge">
<title>hb&#45;&gt;pd</title>
<path fill="none" stroke="black" d="M1269.5,-724.16C1264.25,-714.49 1256.92,-700.99 1250.7,-689.53"/>
<polygon fill="black" stroke="black" points="1253.96,-688.21 1246.12,-681.09 1247.81,-691.55 1253.96,-688.21"/>
</g>
<!-- vk&#45;&gt;cg -->
<g id="edge67" class="edge">
<title>vk&#45;&gt;cg</title>
<path fill="none" stroke="black" d="M1455.11,-1083.5C1450.72,-1074.21 1444.78,-1061.61 1439.62,-1050.66"/>
<polygon fill="black" stroke="black" points="1442.89,-1049.38 1435.46,-1041.82 1436.56,-1052.36 1442.89,-1049.38"/>
</g>
<!-- vk&#45;&gt;fb -->
<g id="edge68" class="edge">
<title>vk&#45;&gt;fb</title>
<path fill="none" stroke="black" d="M1462.08,-1080.23C1468.12,-1053.94 1484.47,-1001.25 1484.47,-955 1484.47,-955 1484.47,-955 1484.47,-377 1484.47,-294.68 1373.98,-257.6 1313.57,-243.07"/>
<polygon fill="black" stroke="black" points="1314.56,-239.71 1304.03,-240.87 1312.99,-246.53 1314.56,-239.71"/>
</g>
<!-- rs -->
<g id="node45" class="node">
<title>rs</title>
<polygon fill="none" stroke="black" points="1353.47,-900 1326.47,-882 1353.47,-864 1380.47,-882 1353.47,-900"/>
<text text-anchor="middle" x="1353.47" y="-876.95" font-family="Times,serif" font-size="14.00">rs</text>
</g>
<!-- kl&#45;&gt;rs -->
<g id="edge69" class="edge">
<title>kl&#45;&gt;rs</title>
<path fill="none" stroke="black" d="M1384.5,-940.16C1379.25,-930.49 1371.92,-916.99 1365.7,-905.53"/>
<polygon fill="black" stroke="black" points="1368.96,-904.21 1361.12,-897.09 1362.81,-907.55 1368.96,-904.21"/>
</g>
<!-- pk&#45;&gt;cb -->
<g id="edge71" class="edge">
<title>pk&#45;&gt;cb</title>
<path fill="none" stroke="black" d="M1964.3,-1083.5C1960.05,-1074.21 1954.29,-1061.61 1949.29,-1050.66"/>
<polygon fill="black" stroke="black" points="1952.59,-1049.47 1945.25,-1041.83 1946.22,-1052.38 1952.59,-1049.47"/>
</g>
<!-- pk&#45;&gt;gp -->
<g id="edge70" class="edge">
<title>pk&#45;&gt;gp</title>
<path fill="none" stroke="black" d="M1971.28,-1080.24C1977.61,-1053.98 1994.47,-1001.32 1994.47,-955 1994.47,-955 1994.47,-955 1994.47,-377 1994.47,-294.68 1883.98,-257.6 1823.57,-243.07"/>
<polygon fill="black" stroke="black" points="1824.56,-239.71 1814.03,-240.87 1822.99,-246.53 1824.56,-239.71"/>
</g>
<!-- jt&#45;&gt;hx -->
<g id="edge72" class="edge">
<title>jt&#45;&gt;hx</title>
<path fill="none" stroke="black" d="M98.5,-436.49C93.13,-426.85 85.57,-413.27 79.14,-401.73"/>
<polygon fill="black" stroke="black" points="82.31,-400.23 74.38,-393.2 76.19,-403.64 82.31,-400.23"/>
</g>
<!-- jt&#45;&gt;jl -->
<g id="edge73" class="edge">
<title>jt&#45;&gt;jl</title>
<path fill="none" stroke="black" d="M104.9,-432.04C104.75,-399.8 109.05,-329.22 146.47,-288 174.44,-257.18 221.68,-244.27 255.05,-238.87"/>
<polygon fill="black" stroke="black" points="255.32,-242.36 264.72,-237.47 254.32,-235.43 255.32,-242.36"/>
</g>
<!-- bg -->
<g id="node33" class="node">
<title>bg</title>
<polygon fill="none" stroke="black" points="294.47,-828 266,-810 294.47,-792 322.94,-810 294.47,-828"/>
<text text-anchor="middle" x="294.47" y="-804.95" font-family="Times,serif" font-size="14.00">bg</text>
</g>
<!-- bg&#45;&gt;js -->
<g id="edge81" class="edge">
<title>bg&#45;&gt;js</title>
<path fill="none" stroke="black" d="M287.51,-795.83C282.43,-786.23 275.43,-772.97 269.46,-761.68"/>
<polygon fill="black" stroke="black" points="272.62,-760.18 264.86,-752.97 266.43,-763.45 272.62,-760.18"/>
</g>
<!-- kz -->
<g id="node34" class="node">
<title>kz</title>
<polygon fill="none" stroke="black" points="880.47,-972 852.72,-954 880.47,-936 908.22,-954 880.47,-972"/>
<text text-anchor="middle" x="880.47" y="-948.95" font-family="Times,serif" font-size="14.00">kz</text>
</g>
<!-- kz&#45;&gt;ss -->
<g id="edge82" class="edge">
<title>kz&#45;&gt;ss</title>
<path fill="none" stroke="black" d="M873.68,-940.16C868.62,-930.59 861.58,-917.26 855.57,-905.88"/>
<polygon fill="black" stroke="black" points="858.69,-904.3 850.92,-897.1 852.5,-907.57 858.69,-904.3"/>
</g>
<!-- kz&#45;&gt;jn -->
<g id="edge83" class="edge">
<title>kz&#45;&gt;jn</title>
<path fill="none" stroke="black" d="M883.69,-937.74C888.87,-911.82 898.47,-857.47 898.47,-811 898.47,-811 898.47,-811 898.47,-377 898.47,-327.49 858.07,-282.17 829.97,-256.62"/>
<polygon fill="black" stroke="black" points="832.3,-254.02 822.48,-250.05 827.68,-259.27 832.3,-254.02"/>
</g>
<!-- fx -->
<g id="node38" class="node">
<title>fx</title>
<polygon fill="none" stroke="black" points="1597.47,-396 1570.47,-378 1597.47,-360 1624.47,-378 1597.47,-396"/>
<text text-anchor="middle" x="1597.47" y="-372.95" font-family="Times,serif" font-size="14.00">fx</text>
</g>
<!-- bf&#45;&gt;fx -->
<g id="edge84" class="edge">
<title>bf&#45;&gt;fx</title>
<path fill="none" stroke="black" d="M1628.5,-436.16C1623.25,-426.49 1615.92,-412.99 1609.7,-401.53"/>
<polygon fill="black" stroke="black" points="1612.96,-400.21 1605.12,-393.09 1606.81,-403.55 1612.96,-400.21"/>
</g>
<!-- bf&#45;&gt;gp -->
<g id="edge85" class="edge">
<title>bf&#45;&gt;gp</title>
<path fill="none" stroke="black" d="M1635.32,-431.64C1635.94,-399.67 1641.58,-330.82 1676.47,-288 1694.37,-266.03 1723.6,-252.51 1747.29,-244.63"/>
<polygon fill="black" stroke="black" points="1748.1,-248.04 1756.61,-241.74 1746.03,-241.35 1748.1,-248.04"/>
</g>
<!-- bk&#45;&gt;dg -->
<g id="edge86" class="edge">
<title>bk&#45;&gt;dg</title>
<path fill="none" stroke="black" d="M569.5,-364.16C564.25,-354.49 556.92,-340.99 550.7,-329.53"/>
<polygon fill="black" stroke="black" points="553.96,-328.21 546.12,-321.09 547.81,-331.55 553.96,-328.21"/>
</g>
<!-- bk&#45;&gt;jn -->
<g id="edge87" class="edge">
<title>bk&#45;&gt;jn</title>
<path fill="none" stroke="black" d="M579.58,-361.72C584.43,-341.84 595.69,-307.36 618.47,-288 660.06,-252.65 723.91,-240.83 764.67,-236.91"/>
<polygon fill="black" stroke="black" points="764.84,-240.41 774.52,-236.09 764.26,-233.43 764.84,-240.41"/>
</g>
<!-- qm&#45;&gt;rr -->
<g id="edge88" class="edge">
<title>qm&#45;&gt;rr</title>
<path fill="none" stroke="black" d="M1737.15,-651.17C1732.93,-641.94 1727.27,-629.57 1722.35,-618.79"/>
<polygon fill="black" stroke="black" points="1725.53,-617.34 1718.19,-609.7 1719.17,-620.25 1725.53,-617.34"/>
</g>
<!-- dp -->
<g id="node39" class="node">
<title>dp</title>
<polygon fill="none" stroke="black" points="1558.47,-324 1530,-306 1558.47,-288 1586.94,-306 1558.47,-324"/>
<text text-anchor="middle" x="1558.47" y="-300.95" font-family="Times,serif" font-size="14.00">dp</text>
</g>
<!-- fx&#45;&gt;dp -->
<g id="edge90" class="edge">
<title>fx&#45;&gt;dp</title>
<path fill="none" stroke="black" d="M1590.5,-364.49C1585.13,-354.85 1577.57,-341.27 1571.14,-329.73"/>
<polygon fill="black" stroke="black" points="1574.31,-328.23 1566.38,-321.2 1568.19,-331.64 1574.31,-328.23"/>
</g>
<!-- fx&#45;&gt;gp -->
<g id="edge89" class="edge">
<title>fx&#45;&gt;gp</title>
<path fill="none" stroke="black" d="M1600.68,-361.62C1605.56,-341.94 1616.66,-308.02 1638.47,-288 1668.64,-260.31 1714.35,-246.85 1746.77,-240.46"/>
<polygon fill="black" stroke="black" points="1747.36,-243.91 1756.58,-238.68 1746.11,-237.02 1747.36,-243.91"/>
</g>
<!-- dp&#45;&gt;gp -->
<g id="edge91" class="edge">
<title>dp&#45;&gt;gp</title>
<path fill="none" stroke="black" d="M1574.67,-297.98C1582.41,-294.74 1591.84,-290.97 1600.47,-288 1650.57,-270.74 1709.59,-254.52 1747.26,-244.68"/>
<polygon fill="black" stroke="black" points="1747.96,-248.12 1756.76,-242.22 1746.21,-241.34 1747.96,-248.12"/>
</g>
<!-- jf&#45;&gt;kz -->
<g id="edge93" class="edge">
<title>jf&#45;&gt;kz</title>
<path fill="none" stroke="black" d="M912.5,-1012.49C907.13,-1002.85 899.57,-989.27 893.14,-977.73"/>
<polygon fill="black" stroke="black" points="896.31,-976.23 888.38,-969.2 890.19,-979.64 896.31,-976.23"/>
</g>
<!-- jf&#45;&gt;jn -->
<g id="edge92" class="edge">
<title>jf&#45;&gt;jn</title>
<path fill="none" stroke="black" d="M922.51,-1009.73C927.4,-983.8 936.47,-929.43 936.47,-883 936.47,-883 936.47,-883 936.47,-377 936.47,-320.6 879.89,-277.37 840.54,-254.12"/>
<polygon fill="black" stroke="black" points="842.44,-251.17 832.02,-249.25 838.97,-257.25 842.44,-251.17"/>
</g>
<!-- jm&#45;&gt;hv -->
<g id="edge94" class="edge">
<title>jm&#45;&gt;hv</title>
<path fill="none" stroke="black" d="M1115.7,-435.83C1110.82,-426.35 1104.11,-413.3 1098.35,-402.1"/>
<polygon fill="black" stroke="black" points="1101.59,-400.75 1093.9,-393.45 1095.36,-403.95 1101.59,-400.75"/>
</g>
<!-- jm&#45;&gt;fb -->
<g id="edge95" class="edge">
<title>jm&#45;&gt;fb</title>
<path fill="none" stroke="black" d="M1122.69,-431.62C1124,-399.61 1131.04,-330.71 1166.47,-288 1184.56,-266.19 1213.78,-252.66 1237.42,-244.73"/>
<polygon fill="black" stroke="black" points="1238.21,-248.15 1246.72,-241.83 1236.13,-241.47 1238.21,-248.15"/>
</g>
<!-- ql&#45;&gt;hs -->
<g id="edge96" class="edge">
<title>ql&#45;&gt;hs</title>
<path fill="none" stroke="black" d="M722.5,-652.16C717.25,-642.49 709.92,-628.99 703.7,-617.53"/>
<polygon fill="black" stroke="black" points="706.96,-616.21 699.12,-609.09 700.81,-619.55 706.96,-616.21"/>
</g>
<!-- ms&#45;&gt;bg -->
<g id="edge97" class="edge">
<title>ms&#45;&gt;bg</title>
<path fill="none" stroke="black" d="M322.72,-867.5C318.01,-858.09 311.61,-845.28 306.09,-834.24"/>
<polygon fill="black" stroke="black" points="309.24,-832.71 301.64,-825.34 302.98,-835.85 309.24,-832.71"/>
</g>
<!-- zb&#45;&gt;lr -->
<g id="edge98" class="edge">
<title>zb&#45;&gt;lr</title>
<path fill="none" stroke="black" d="M211.68,-652.16C206.62,-642.59 199.58,-629.26 193.57,-617.88"/>
<polygon fill="black" stroke="black" points="196.69,-616.3 188.92,-609.1 190.5,-619.57 196.69,-616.3"/>
</g>
<!-- rs&#45;&gt;rt -->
<g id="edge100" class="edge">
<title>rs&#45;&gt;rt</title>
<path fill="none" stroke="black" d="M1346.5,-868.16C1341.25,-858.49 1333.92,-844.99 1327.7,-833.53"/>
<polygon fill="black" stroke="black" points="1330.96,-832.21 1323.12,-825.09 1324.81,-835.55 1330.96,-832.21"/>
</g>
<!-- rs&#45;&gt;fb -->
<g id="edge99" class="edge">
<title>rs&#45;&gt;fb</title>
<path fill="none" stroke="black" d="M1356.51,-865.73C1361.4,-839.8 1370.47,-785.43 1370.47,-739 1370.47,-739 1370.47,-739 1370.47,-377 1370.47,-327.49 1330.07,-282.17 1301.97,-256.62"/>
<polygon fill="black" stroke="black" points="1304.3,-254.02 1294.48,-250.05 1299.68,-259.27 1304.3,-254.02"/>
</g>
<!-- dt&#45;&gt;xv -->
<g id="edge101" class="edge">
<title>dt&#45;&gt;xv</title>
<path fill="none" stroke="black" d="M1856.5,-868.49C1851.13,-858.85 1843.57,-845.27 1837.14,-833.73"/>
<polygon fill="black" stroke="black" points="1840.31,-832.23 1832.38,-825.2 1834.19,-835.64 1840.31,-832.23"/>
</g>
<!-- dt&#45;&gt;gp -->
<g id="edge102" class="edge">
<title>dt&#45;&gt;gp</title>
<path fill="none" stroke="black" d="M1866.51,-865.73C1871.4,-839.8 1880.47,-785.43 1880.47,-739 1880.47,-739 1880.47,-739 1880.47,-377 1880.47,-327.49 1840.07,-282.17 1811.97,-256.62"/>
<polygon fill="black" stroke="black" points="1814.3,-254.02 1804.48,-250.05 1809.68,-259.27 1814.3,-254.02"/>
</g>
<!-- lm&#45;&gt;bh -->
<g id="edge103" class="edge">
<title>lm&#45;&gt;bh</title>
<path fill="none" stroke="black" d="M399.7,-1011.83C394.82,-1002.35 388.11,-989.3 382.35,-978.1"/>
<polygon fill="black" stroke="black" points="385.59,-976.75 377.9,-969.45 379.36,-979.95 385.59,-976.75"/>
</g>
<!-- pd&#45;&gt;cf -->
<g id="edge105" class="edge">
<title>pd&#45;&gt;cf</title>
<path fill="none" stroke="black" d="M1231.51,-651.83C1226.43,-642.23 1219.43,-628.97 1213.46,-617.68"/>
<polygon fill="black" stroke="black" points="1216.62,-616.18 1208.86,-608.97 1210.43,-619.45 1216.62,-616.18"/>
</g>
<!-- pd&#45;&gt;fb -->
<g id="edge106" class="edge">
<title>pd&#45;&gt;fb</title>
<path fill="none" stroke="black" d="M1241.69,-649.74C1246.87,-623.82 1256.47,-569.47 1256.47,-523 1256.47,-523 1256.47,-523 1256.47,-377 1256.47,-335.83 1264.41,-288.54 1270.03,-260.25"/>
<polygon fill="black" stroke="black" points="1273.44,-261.01 1272.03,-250.51 1266.59,-259.6 1273.44,-261.01"/>
</g>
<!-- qd&#45;&gt;jl -->
<g id="edge107" class="edge">
<title>qd&#45;&gt;jl</title>
<path fill="none" stroke="black" d="M44.61,-297.8C52.34,-294.53 61.78,-290.77 70.47,-288 133.98,-267.73 209.87,-251.29 254.73,-242.35"/>
<polygon fill="black" stroke="black" points="255.37,-245.79 264.5,-240.43 254.01,-238.93 255.37,-245.79"/>
</g>
<!-- fb&#45;&gt;cg -->
<g id="edge7" class="edge">
<title>fb&#45;&gt;cg</title>
<path fill="none" stroke="black" d="M1302.94,-243.56C1351.28,-260.53 1446.47,-303.3 1446.47,-377 1446.47,-883 1446.47,-883 1446.47,-883 1446.47,-923.66 1439.12,-970.35 1433.81,-998.76"/>
<polygon fill="black" stroke="black" points="1430.44,-997.77 1431.97,-1008.25 1437.31,-999.1 1430.44,-997.77"/>
</g>
<!-- fb&#45;&gt;hb -->
<g id="edge3" class="edge">
<title>fb&#45;&gt;hb</title>
<path fill="none" stroke="black" d="M1278.61,-249.03C1284,-274.41 1294.47,-329.74 1294.47,-377 1294.47,-595 1294.47,-595 1294.47,-595 1294.47,-635.66 1287.12,-682.35 1281.81,-710.76"/>
<polygon fill="black" stroke="black" points="1278.44,-709.77 1279.97,-720.25 1285.31,-711.1 1278.44,-709.77"/>
</g>
<!-- fb&#45;&gt;vk -->
<g id="edge4" class="edge">
<title>fb&#45;&gt;vk</title>
<path fill="none" stroke="black" d="M1302.8,-238.71C1363.36,-249.22 1502.47,-284.63 1502.47,-377 1502.47,-955 1502.47,-955 1502.47,-955 1502.47,-998.53 1487.98,-1047.78 1475.76,-1075.33"/>
<polygon fill="black" stroke="black" points="1472.74,-1073.53 1471.54,-1084.06 1479.04,-1076.58 1472.74,-1073.53"/>
</g>
<!-- fb&#45;&gt;kl -->
<g id="edge6" class="edge">
<title>fb&#45;&gt;kl</title>
<path fill="none" stroke="black" d="M1302.71,-248.5C1341.62,-269.94 1408.47,-315.69 1408.47,-377 1408.47,-811 1408.47,-811 1408.47,-811 1408.47,-851.63 1401.52,-898.33 1396.51,-926.74"/>
<polygon fill="black" stroke="black" points="1393.13,-925.78 1394.78,-936.24 1400.02,-927.03 1393.13,-925.78"/>
</g>
<!-- fz -->
<g id="node58" class="node">
<title>fz</title>
<polygon fill="none" stroke="black" points="1148.47,-156.44 1175.47,-144 1202.47,-156.44 1202.44,-176.56 1148.49,-176.56 1148.47,-156.44"/>
<text text-anchor="middle" x="1175.47" y="-156.95" font-family="Times,serif" font-size="14.00">fz</text>
</g>
<!-- fb&#45;&gt;fz -->
<g id="edge5" class="edge">
<title>fb&#45;&gt;fz</title>
<path fill="none" stroke="black" d="M1260.71,-222.67C1246.07,-212.42 1223.22,-196.42 1204.86,-183.57"/>
<polygon fill="black" stroke="black" points="1206.91,-180.74 1196.71,-177.87 1202.89,-186.47 1206.91,-180.74"/>
</g>
<!-- gp&#45;&gt;bd -->
<g id="edge12" class="edge">
<title>gp&#45;&gt;bd</title>
<path fill="none" stroke="black" d="M1812.71,-248.5C1851.62,-269.94 1918.47,-315.69 1918.47,-377 1918.47,-811 1918.47,-811 1918.47,-811 1918.47,-851.66 1911.12,-898.35 1905.81,-926.76"/>
<polygon fill="black" stroke="black" points="1902.44,-925.77 1903.97,-936.25 1909.31,-927.1 1902.44,-925.77"/>
</g>
<!-- gp&#45;&gt;cb -->
<g id="edge11" class="edge">
<title>gp&#45;&gt;cb</title>
<path fill="none" stroke="black" d="M1812.94,-243.56C1861.28,-260.53 1956.47,-303.3 1956.47,-377 1956.47,-883 1956.47,-883 1956.47,-883 1956.47,-923.66 1949.12,-970.35 1943.81,-998.76"/>
<polygon fill="black" stroke="black" points="1940.44,-997.77 1941.97,-1008.25 1947.31,-999.1 1940.44,-997.77"/>
</g>
<!-- gp&#45;&gt;vm -->
<g id="edge10" class="edge">
<title>gp&#45;&gt;vm</title>
<path fill="none" stroke="black" d="M1758.22,-248.81C1743.03,-257.91 1725.08,-271.23 1714.47,-288 1692.97,-321.97 1676.97,-439.18 1670.56,-493.26"/>
<polygon fill="black" stroke="black" points="1667.08,-492.84 1669.41,-503.18 1674.03,-493.65 1667.08,-492.84"/>
</g>
<!-- gp&#45;&gt;pk -->
<g id="edge15" class="edge">
<title>gp&#45;&gt;pk</title>
<path fill="none" stroke="black" d="M1812.8,-238.71C1873.36,-249.22 2012.47,-284.63 2012.47,-377 2012.47,-955 2012.47,-955 2012.47,-955 2012.47,-998.82 1997.37,-1048.32 1984.82,-1075.78"/>
<polygon fill="black" stroke="black" points="1981.83,-1073.93 1980.49,-1084.44 1988.09,-1077.05 1981.83,-1073.93"/>
</g>
<!-- gp&#45;&gt;qm -->
<g id="edge13" class="edge">
<title>gp&#45;&gt;qm</title>
<path fill="none" stroke="black" d="M1782.33,-249.03C1776.94,-274.41 1766.47,-329.74 1766.47,-377 1766.47,-523 1766.47,-523 1766.47,-523 1766.47,-563.86 1757.07,-610.5 1750.29,-638.84"/>
<polygon fill="black" stroke="black" points="1746.95,-637.77 1747.95,-648.32 1753.75,-639.46 1746.95,-637.77"/>
</g>
<!-- xf -->
<g id="node56" class="node">
<title>xf</title>
<polygon fill="none" stroke="black" points="1420.47,-156.44 1447.47,-144 1474.47,-156.44 1474.44,-176.56 1420.49,-176.56 1420.47,-156.44"/>
<text text-anchor="middle" x="1447.47" y="-156.95" font-family="Times,serif" font-size="14.00">xf</text>
</g>
<!-- gp&#45;&gt;xf -->
<g id="edge14" class="edge">
<title>gp&#45;&gt;xf</title>
<path fill="none" stroke="black" d="M1759.23,-227.57C1699.87,-215.27 1555.07,-185.28 1485.72,-170.92"/>
<polygon fill="black" stroke="black" points="1486.85,-167.58 1476.35,-168.98 1485.43,-174.44 1486.85,-167.58"/>
</g>
<!-- hn -->
<g id="node52" class="node">
<title>hn</title>
<polygon fill="none" stroke="black" points="858.47,-156.44 885.47,-144 912.47,-156.44 912.44,-176.56 858.49,-176.56 858.47,-156.44"/>
<text text-anchor="middle" x="885.47" y="-156.95" font-family="Times,serif" font-size="14.00">hn</text>
</g>
<!-- xn -->
<g id="node57" class="node">
<title>xn</title>
<polygon fill="none" stroke="black" points="894.47,-84.44 921.47,-72 948.47,-84.44 948.44,-104.56 894.49,-104.56 894.47,-84.44"/>
<text text-anchor="middle" x="921.47" y="-84.95" font-family="Times,serif" font-size="14.00">xn</text>
</g>
<!-- hn&#45;&gt;xn -->
<g id="edge34" class="edge">
<title>hn&#45;&gt;xn</title>
<path fill="none" stroke="black" d="M892.75,-146.83C897.5,-137.61 903.81,-125.34 909.3,-114.65"/>
<polygon fill="black" stroke="black" points="912.29,-116.51 913.75,-106.01 906.06,-113.31 912.29,-116.51"/>
</g>
<!-- jl&#45;&gt;km -->
<g id="edge41" class="edge">
<title>jl&#45;&gt;km</title>
<path fill="none" stroke="black" d="M320.64,-241.09C373.16,-255.71 482.47,-297.59 482.47,-377 482.47,-955 482.47,-955 482.47,-955 482.47,-995.59 482.47,-1042.7 480.08,-1071.16"/>
<polygon fill="black" stroke="black" points="476.61,-1070.66 479.01,-1080.98 483.57,-1071.42 476.61,-1070.66"/>
</g>
<!-- jl&#45;&gt;lr -->
<g id="edge45" class="edge">
<title>jl&#45;&gt;lr</title>
<path fill="none" stroke="black" d="M266.96,-248.86C251.84,-258.05 233.7,-271.46 222.47,-288 199.46,-321.89 198.47,-336.03 198.47,-377 198.47,-451 198.47,-451 198.47,-451 198.47,-491.63 191.52,-538.33 186.51,-566.74"/>
<polygon fill="black" stroke="black" points="183.13,-565.78 184.78,-576.24 190.02,-567.03 183.13,-565.78"/>
</g>
<!-- jl&#45;&gt;bg -->
<g id="edge47" class="edge">
<title>jl&#45;&gt;bg</title>
<path fill="none" stroke="black" d="M296.61,-249.03C302,-274.41 312.47,-329.74 312.47,-377 312.47,-667 312.47,-667 312.47,-667 312.47,-707.66 305.12,-754.35 299.81,-782.76"/>
<polygon fill="black" stroke="black" points="296.44,-781.77 297.97,-792.25 303.31,-783.1 296.44,-781.77"/>
</g>
<!-- jl&#45;&gt;ms -->
<g id="edge43" class="edge">
<title>jl&#45;&gt;ms</title>
<path fill="none" stroke="black" d="M303.14,-248.77C319.4,-273.32 350.47,-326.79 350.47,-377 350.47,-739 350.47,-739 350.47,-739 350.47,-779.78 341.89,-826.44 335.7,-854.8"/>
<polygon fill="black" stroke="black" points="332.35,-853.77 333.56,-864.29 339.17,-855.31 332.35,-853.77"/>
</g>
<!-- jl&#45;&gt;zb -->
<g id="edge46" class="edge">
<title>jl&#45;&gt;zb</title>
<path fill="none" stroke="black" d="M283.32,-248.77C276.09,-259.12 266.61,-273.88 260.47,-288 244.13,-325.57 236.47,-336.03 236.47,-377 236.47,-523 236.47,-523 236.47,-523 236.47,-563.66 229.12,-610.35 223.81,-638.76"/>
<polygon fill="black" stroke="black" points="220.44,-637.77 221.97,-648.25 227.31,-639.1 220.44,-637.77"/>
</g>
<!-- jl&#45;&gt;lm -->
<g id="edge42" class="edge">
<title>jl&#45;&gt;lm</title>
<path fill="none" stroke="black" d="M320.71,-248.5C359.62,-269.94 426.47,-315.69 426.47,-377 426.47,-883 426.47,-883 426.47,-883 426.47,-923.74 418.3,-970.41 412.4,-998.79"/>
<polygon fill="black" stroke="black" points="409.04,-997.77 410.36,-1008.28 415.89,-999.24 409.04,-997.77"/>
</g>
<!-- mp -->
<g id="node54" class="node">
<title>mp</title>
<polygon fill="none" stroke="black" points="345.79,-156.44 374.47,-144 403.15,-156.44 403.12,-176.56 345.82,-176.56 345.79,-156.44"/>
<text text-anchor="middle" x="374.47" y="-156.95" font-family="Times,serif" font-size="14.00">mp</text>
</g>
<!-- jl&#45;&gt;mp -->
<g id="edge44" class="edge">
<title>jl&#45;&gt;mp</title>
<path fill="none" stroke="black" d="M306.48,-221.75C318.19,-211.64 335.69,-196.52 350,-184.15"/>
<polygon fill="black" stroke="black" points="352,-187.05 357.28,-177.86 347.42,-181.75 352,-187.05"/>
</g>
<!-- mp&#45;&gt;xn -->
<g id="edge65" class="edge">
<title>mp&#45;&gt;xn</title>
<path fill="none" stroke="black" d="M403.49,-157.29C495.26,-145.54 779.19,-109.21 882.98,-95.93"/>
<polygon fill="black" stroke="black" points="883.17,-99.43 892.65,-94.69 882.29,-92.49 883.17,-99.43"/>
</g>
<!-- jn&#45;&gt;hm -->
<g id="edge76" class="edge">
<title>jn&#45;&gt;hm</title>
<path fill="none" stroke="black" d="M800.33,-249.03C794.94,-274.41 784.47,-329.74 784.47,-377 784.47,-595 784.47,-595 784.47,-595 784.47,-635.86 775.07,-682.5 768.29,-710.84"/>
<polygon fill="black" stroke="black" points="764.95,-709.77 765.95,-720.32 771.75,-711.46 764.95,-709.77"/>
</g>
<!-- jn&#45;&gt;hs -->
<g id="edge74" class="edge">
<title>jn&#45;&gt;hs</title>
<path fill="none" stroke="black" d="M776.96,-248.86C761.84,-258.05 743.7,-271.46 732.47,-288 709.46,-321.89 708.47,-336.03 708.47,-377 708.47,-451 708.47,-451 708.47,-451 708.47,-491.63 701.52,-538.33 696.51,-566.74"/>
<polygon fill="black" stroke="black" points="693.13,-565.78 694.78,-576.24 700.02,-567.03 693.13,-565.78"/>
</g>
<!-- jn&#45;&gt;lp -->
<g id="edge75" class="edge">
<title>jn&#45;&gt;lp</title>
<path fill="none" stroke="black" d="M806.61,-249.03C812,-274.41 822.47,-329.74 822.47,-377 822.47,-667 822.47,-667 822.47,-667 822.47,-707.63 815.52,-754.33 810.51,-782.74"/>
<polygon fill="black" stroke="black" points="807.13,-781.78 808.78,-792.24 814.02,-783.03 807.13,-781.78"/>
</g>
<!-- jn&#45;&gt;ss -->
<g id="edge80" class="edge">
<title>jn&#45;&gt;ss</title>
<path fill="none" stroke="black" d="M813.14,-248.77C829.4,-273.32 860.47,-326.79 860.47,-377 860.47,-739 860.47,-739 860.47,-739 860.47,-779.63 853.52,-826.33 848.51,-854.74"/>
<polygon fill="black" stroke="black" points="845.13,-853.78 846.78,-864.24 852.02,-855.03 845.13,-853.78"/>
</g>
<!-- jn&#45;&gt;xt -->
<g id="edge79" class="edge">
<title>jn&#45;&gt;xt</title>
<path fill="none" stroke="black" d="M830.64,-241.09C883.16,-255.71 992.47,-297.59 992.47,-377 992.47,-955 992.47,-955 992.47,-955 992.47,-996.02 992.47,-1043.7 990,-1072.06"/>
<polygon fill="black" stroke="black" points="986.54,-1071.46 988.9,-1081.79 993.5,-1072.24 986.54,-1071.46"/>
</g>
<!-- jn&#45;&gt;ql -->
<g id="edge78" class="edge">
<title>jn&#45;&gt;ql</title>
<path fill="none" stroke="black" d="M793.32,-248.77C786.09,-259.12 776.61,-273.88 770.47,-288 754.13,-325.57 746.47,-336.03 746.47,-377 746.47,-523 746.47,-523 746.47,-523 746.47,-563.63 739.52,-610.33 734.51,-638.74"/>
<polygon fill="black" stroke="black" points="731.13,-637.78 732.78,-648.24 738.02,-639.03 731.13,-637.78"/>
</g>
<!-- jn&#45;&gt;hn -->
<g id="edge77" class="edge">
<title>jn&#45;&gt;hn</title>
<path fill="none" stroke="black" d="M816.64,-221.75C828.49,-211.64 846.21,-196.52 860.7,-184.15"/>
<polygon fill="black" stroke="black" points="862.74,-187.01 868.07,-177.85 858.19,-181.68 862.74,-187.01"/>
</g>
<!-- xf&#45;&gt;xn -->
<g id="edge104" class="edge">
<title>xf&#45;&gt;xn</title>
<path fill="none" stroke="black" d="M1420.3,-157.38C1333.28,-145.8 1061.31,-109.61 960,-96.13"/>
<polygon fill="black" stroke="black" points="960.67,-92.69 950.3,-94.84 959.75,-99.62 960.67,-92.69"/>
</g>
<!-- rx -->
<g id="node59" class="node">
<title>rx</title>
<polygon fill="none" stroke="black" points="937.24,-36 905.7,-36 894.47,0 948.47,0 937.24,-36"/>
<text text-anchor="middle" x="921.47" y="-12.95" font-family="Times,serif" font-size="14.00">rx</text>
</g>
<!-- xn&#45;&gt;rx -->
<g id="edge108" class="edge">
<title>xn&#45;&gt;rx</title>
<path fill="none" stroke="black" d="M921.47,-71.7C921.47,-64.41 921.47,-55.73 921.47,-47.54"/>
<polygon fill="black" stroke="black" points="924.97,-47.62 921.47,-37.62 917.97,-47.62 924.97,-47.62"/>
</g>
<!-- fz&#45;&gt;xn -->
<g id="edge109" class="edge">
<title>fz&#45;&gt;xn</title>
<path fill="none" stroke="black" d="M1152.03,-154.54C1108.09,-142.43 1012.99,-116.22 959.68,-101.53"/>
<polygon fill="black" stroke="black" points="960.68,-98.18 950.11,-98.89 958.82,-104.92 960.68,-98.18"/>
</g>
</g>
</svg>
